<svg width="100%" height="100%" viewBox="0 0 800 600" xmlns="http://www.w3.org/2000/svg" preserveAspectRatio="xMidYMid slice">
  <defs>
    <linearGradient id="skySun" x1="0" y1="0" x2="0" y2="1">
      <stop offset="0%" stop-color="#4facfe"/>
      <stop offset="100%" stop-color="#00f2fe"/>
    </linearGradient>
  </defs>

  <rect width="100%" height="100%" fill="url(#skySun)"/>

  <g transform="translate(650, 200)">
    <circle r="40" fill="#FFD700" />
    <g stroke="#FFD700" stroke-width="4" stroke-linecap="round">
      <line x1="0" y1="-55" x2="0" y2="-70" />
      <line x1="38" y1="-38" x2="50" y2="-50" />
      <line x1="55" y1="0" x2="70" y2="0" />
      <line x1="38" y1="38" x2="50" y2="50" />
      <line x1="0" y1="55" x2="0" y2="70" />
      <line x1="-38" y1="38" x2="-50" y2="50" />
      <line x1="-55" y1="0" x2="-70" y2="0" />
      <line x1="-38" y1="-38" x2="-50" y2="-50" />
      <animateTransform attributeName="transform" type="rotate" from="0 0 0" to="360 0 0" dur="60s" repeatCount="indefinite"/>
    </g>
  </g>

  <g fill="#FFFFFF" opacity="0.9">
     <g>
         <circle cx="0" cy="0" r="30" />
         <circle cx="40" cy="10" r="25" />
         <circle cx="-40" cy="10" r="25" />
         <circle cx="20" cy="-25" r="30" />
         <circle cx="-20" cy="-25" r="30" />
     </g>
     <animateTransform attributeName="transform" type="translate" from="-150 150" to="950 150" dur="40s" begin="-20s" repeatCount="indefinite" />
  </g>

  <g fill="#FFFFFF" opacity="0.7">
     <g>
         <circle cx="0" cy="0" r="25" />
         <circle cx="30" cy="5" r="20" />
         <circle cx="-30" cy="5" r="20" />
         <circle cx="15" cy="-18" r="22" />
         <circle cx="-15" cy="-18" r="22" />
     </g>
     <animateTransform attributeName="transform" type="translate" from="-150 280" to="950 280" dur="30s" begin="-5s" repeatCount="indefinite" />
  </g>

  <g fill="#FFFFFF" opacity="0.5">
     <g>
         <circle cx="0" cy="0" r="20" />
         <circle cx="25" cy="5" r="15" />
         <circle cx="-25" cy="5" r="15" />
         <circle cx="12" cy="-15" r="18" />
         <circle cx="-12" cy="-15" r="18" />
     </g>
     <animateTransform attributeName="transform" type="translate" from="-100 220" to="900 220" dur="60s" begin="-45s" repeatCount="indefinite" />
  </g>

  <path d="M0 350 Q 200 250 400 350 T 800 300 V 600 H 0 Z" fill="#81C784" />
  
  <path d="M0 400 Q 300 300 600 400 T 800 380 V 600 H 0 Z" fill="#43A047" />
  
  <g transform="translate(100, 380)">
      <path d="M-15 100 L -10 0 Q 0 -10 10 0 L 15 100 Z" fill="#5D4037" />
      <g fill="#388E3C">
        <ellipse cx="0" cy="-20" rx="40" ry="30" />
        <ellipse cx="-30" cy="10" rx="35" ry="25" />
        <ellipse cx="30" cy="10" rx="35" ry="25" />
        <ellipse cx="0" cy="-50" rx="30" ry="25" fill="#4CAF50"/> 
      </g>
  </g>

  <g transform="translate(650, 400)">
      <g>
        <path d="M-10 80 L 10 80 L 5 0 L -5 0 Z" fill="#5D4037" />
        <g fill="#2E7D32">
            <path d="M-30 60 L 30 60 L 0 20 Z" />
            <path d="M-25 35 L 25 35 L 0 0 Z" />
            <path d="M-15 15 L 15 15 L 0 -20 Z" />
        </g>
      </g>
      <g transform="translate(80, 20) scale(0.8)">
        <path d="M-10 80 L 10 80 L 5 0 L -5 0 Z" fill="#5D4037" />
        <g fill="#2E7D32">
            <path d="M-30 60 L 30 60 L 0 20 Z" />
            <path d="M-25 35 L 25 35 L 0 0 Z" />
            <path d="M-15 15 L 15 15 L 0 -20 Z" />
        </g>
      </g>
  </g>
</svg>